#!OML:ASF E:\Style3\Style3.ASF
:FULLY-SPECIFIED
:DEGREES
2011
root 1.03436 19.2377 2.6016 -508.082 116.867 -536.413
lowerback 188.712 183.712 182.176
upperback -10.9413 -4.13043 3.02184
thorax -17.2244 -1.82402 3.18065
lowerneck 2.56086 -1.95949 -4.6434
upperneck -30.3985 0.809448 12.4056
head -10.0326 -0.120693 5.16697
rclavicle -3.16068e-014 -1.55052e-014
rhumerus -67.087 23.5205 -87.6659
rradius 63.3536
rwrist -8.03884
rhand 38.1037 11.3858
rfingers 7.12502
rthumb 60.8055 -1.52017
lclavicle -3.16068e-014 -1.55052e-014
lhumerus -73.7689 -16.0322 98.4031
lradius 59.669
lwrist 29.1081
lhand 31.5101 42.3025
lfingers 7.12502
lthumb 55.0592 60.3982
rfemur -39.5254 13.6061 12.3986
rtibia 24.0073
rfoot 16.8175 4.31209
rtoes -25.4122
lfemur -27.0584 -1.42112 -14.5121
ltibia 19.7982
lfoot 29.4408 23.6833
ltoes -29.3334
2012
root 1.09565 19.3336 2.62904 -508.02 116.726 -536.075
lowerback 187.945 183.74 182.211
upperback -10.9985 -4.19667 2.93342
thorax -16.7951 -1.8788 3.01131
lowerneck 2.44395 -1.969 -4.43831
upperneck -29.6857 0.536865 11.7299
head -9.72346 -0.203241 4.86408
rclavicle -3.27995e-014 2.62396e-014
rhumerus -67.0271 23.4051 -87.6749
rradius 63.3073
rwrist -7.66668
rhand 38.0067 11.4285
rfingers 7.12502
rthumb 60.7232 -1.56942
lclavicle -3.27995e-014 2.62396e-014
lhumerus -73.9393 -16.0251 98.3065
lradius 59.6884
lwrist 29.2565
lhand 31.4754 42.2575
lfingers 7.12502
lthumb 55.0283 60.3757
rfemur -38.2636 13.7576 12.2352
rtibia 22.2958
rfoot 19.0228 3.8724
rtoes -24.0257
lfemur -25.8112 -3.9088 -13.8437
ltibia 17.9521
lfoot 29.4428 29.0451
ltoes -22.2699
2013
root 1.14184 19.4207 2.65663 -507.844 116.505 -535.64
lowerback 187.417 183.771 182.108
upperback -11.1633 -4.26426 2.90903
thorax -16.6448 -1.90176 3.02091
lowerneck 2.47786 -1.95053 -4.39534
upperneck -28.8991 0.268983 11.0248
head -9.42308 -0.270203 4.58567
rclavicle -7.21588e-014 -3.02153e-014
rhumerus -67.1924 23.3248 -87.6836
rradius 63.2241
rwrist -7.43379
rhand 37.7763 11.7749
rfingers 7.12502
rthumb 60.5277 -1.43924
lclavicle -7.21588e-014 -3.02153e-014
lhumerus -74.2535 -15.9085 98.2966
lradius 59.7617
lwrist 29.3355
lhand 31.2299 42.1069
lfingers 7.12502
lthumb 54.8091 60.3828
rfemur -37.2044 13.9369 12.0382
rtibia 20.7654
rfoot 21.3226 2.63319
rtoes -21.2258
lfemur -24.6745 -6.83703 -13.0312
ltibia 16.0594
lfoot 27.638 35.4833
ltoes -12.2246
2014
root 1.181 19.4987 2.68286 -507.541 116.2 -535.093
lowerback 187.025 183.781 182.001
upperback -11.3576 -4.29467 2.89408
thorax -16.6218 -1.90166 3.04953
lowerneck 2.59105 -2.0012 -4.57728
upperneck -28.142 -0.0875284 10.4254
head -9.14384 -0.370072 4.40068
rclavicle -3.56818e-014 -7.15625e-015
rhumerus -67.4549 23.2213 -87.6508
rradius 63.2469
rwrist -7.49613
rhand 37.4388 11.7028
rfingers 7.12502
rthumb 60.2403 -1.82272
lclavicle -3.56818e-014 -7.15625e-015
lhumerus -74.5908 -15.8713 98.3547
lradius 59.9138
lwrist 29.3923
lhand 31.2435 42.1081
lfingers 7.12502
lthumb 54.8213 60.3752
rfemur -36.3598 14.1549 11.8067
rtibia 19.5048
rfoot 23.2817 1.57906
rtoes -20.025
lfemur -23.6373 -10.0883 -12.1178
ltibia 14.1091
lfoot 21.5291 43.0788
ltoes 2.54804
2015
root 1.22129 19.5671 2.70665 -507.202 115.949 -534.508
lowerback 186.524 183.733 181.955
upperback -11.5085 -4.24522 2.83009
thorax -16.483 -1.87944 2.95939
lowerneck 2.65501 -2.13584 -4.7915
upperneck -27.2719 -0.582952 9.76051
head -8.81076 -0.528457 4.2076
rclavicle 5.87409e-014 -7.4743e-014
rhumerus -67.7263 23.056 -87.5636
rradius 63.4078
rwrist -7.5639
rhand 37.3731 11.4812
rfingers 7.12502
rthumb 60.1842 -2.10432
lclavicle 5.87409e-014 -7.4743e-014
lhumerus -74.925 -16.1109 98.5569
lradius 60.079
lwrist 29.6347
lhand 31.4109 42.3271
lfingers 7.12502
lthumb 54.9708 60.4869
rfemur -35.6604 14.2048 11.6428
rtibia 18.534
rfoot 25.2114 0.542389
rtoes -18.5006
lfemur -22.6142 -13.5756 -11.2225
ltibia 12.1682
lfoot 6.4192 50.2885
ltoes 21.7036
2016
root 1.26202 19.6251 2.73039 -506.844 115.757 -533.896
lowerback 185.929 183.683 181.87
upperback -11.6212 -4.20551 2.74242
thorax -16.2325 -1.86232 2.85551
lowerneck 2.82489 -2.23763 -4.83323
upperneck -26.4781 -1.03282 8.93336
head -8.54127 -0.673193 3.9342
rclavicle 2.80286e-014 1.11319e-014
rhumerus -67.9963 22.9028 -87.5225
rradius 63.5624
rwrist -7.54352
rhand 37.4254 11.4169
rfingers 7.12502
rthumb 60.2288 -2.12094
lclavicle 2.80286e-014 1.11319e-014
lhumerus -75.3094 -16.3619 98.7554
lradius 60.2893
lwrist 29.9504
lhand 31.3591 42.3773
lfingers 7.12502
lthumb 54.9245 60.5705
rfemur -35.0801 14.243 11.4518
rtibia 17.8207
rfoot 27.1652 -0.84049
rtoes -15.7116
lfemur -21.6074 -16.7671 -10.5494
ltibia 10.2842
lfoot -14.1052 52.2701
ltoes 35.6513
2017
root 1.30285 19.6757 2.75313 -506.44 115.558 -533.256
lowerback 185.377 183.687 181.755
upperback -11.7303 -4.2438 2.6483
thorax -16.0024 -1.87818 2.7805
lowerneck 2.85279 -2.29848 -4.75976
upperneck -25.5494 -1.39219 8.13258
head -8.21518 -0.788839 3.64219
rclavicle 2.03754e-014 -4.77083e-014
rhumerus -68.2666 22.8874 -87.6324
rradius 63.732
rwrist -7.56552
rhand 37.5769 11.3339
rfingers 7.12502
rthumb 60.358 -2.06499
lclavicle 2.03754e-014 -4.77083e-014
lhumerus -75.6683 -16.4991 98.7905
lradius 60.4434
lwrist 30.2392
lhand 31.5071 42.3219
lfingers 7.12502
lthumb 55.0565 60.4196
rfemur -34.5953 14.3002 11.22
rtibia 17.3094
rfoot 28.7964 -1.8074
rtoes -14.1748
lfemur -20.3359 -17.1382 -10.998
ltibia 8.49879
lfoot -28.8957 48.5855
ltoes 44.271
2018
root 1.33887 19.7129 2.77674 -505.999 115.302 -532.645
lowerback 184.791 183.762 181.576
upperback -11.8283 -4.38054 2.61507
thorax -15.7242 -1.92905 2.82317
lowerneck 2.83499 -2.27191 -4.61349
upperneck -24.517 -1.62613 7.25929
head -7.86478 -0.848287 3.3073
rclavicle -1.17034e-013 8.74653e-015
rhumerus -68.5104 23.082 -87.8647
rradius 64.0026
rwrist -7.57762
rhand 37.9395 11.2731
rfingers 7.12502
rthumb 60.6662 -1.78825
lclavicle -1.17034e-013 8.74653e-015
lhumerus -75.9642 -16.5528 98.8011
lradius 60.5765
lwrist 30.5583
lhand 31.5646 42.141
lfingers 7.12502
lthumb 55.1079 60.2014
rfemur -34.2493 14.4218 10.98
rtibia 16.9261
rfoot 30.1834 -2.59614
rtoes -13.7939
lfemur -19.3219 -17.4595 -11.1905
ltibia 6.92633
lfoot -34.2848 46.4371
ltoes 46.8525
2019
root 1.37029 19.735 2.79973 -505.651 115.006 -532.124
lowerback 184.281 183.828 181.41
upperback -11.8888 -4.49718 2.61604
thorax -15.4482 -1.96982 2.89542
lowerneck 2.80065 -2.27252 -4.6013
upperneck -23.5153 -1.87475 6.46595
head -7.52431 -0.912585 3.03063
rclavicle -5.49143e-014 -7.95139e-016
rhumerus -68.653 23.2466 -87.9923
rradius 64.2551
rwrist -7.64201
rhand 38.4361 11.175
rfingers 7.12502
rthumb 61.0866 -1.4117
lclavicle -5.49143e-014 -7.95139e-016
lhumerus -76.3247 -16.64 98.896
lradius 60.9155
lwrist 30.8717
lhand 31.4395 42.1345
lfingers 7.12502
lthumb 54.9963 60.2759
rfemur -33.9133 14.4969 10.8421
rtibia 16.6115
rfoot 31.1608 -3.48882
rtoes -12.9978
lfemur -18.5239 -17.7512 -11.2003
ltibia 5.64851
lfoot -35.7068 46.2257
ltoes 47.6503
2020
root 1.40145 19.7495 2.81777 -505.446 114.727 -531.771
lowerback 183.815 183.879 181.357
upperback -11.9122 -4.57556 2.63316
thorax -15.1653 -2.00562 2.91695
lowerneck 2.59734 -2.29502 -4.55928
upperneck -22.3946 -2.14129 5.62075
head -7.12156 -0.986435 2.73301
rclavicle 1.57686e-013 1.19271e-014
rhumerus -68.7303 23.4591 -88.0889
rradius 64.517
rwrist -7.82423
rhand 38.6487 11.1427
rfingers 7.12502
rthumb 61.2658 -1.23632
lclavicle 1.57686e-013 1.19271e-014
lhumerus -76.6409 -16.7475 98.9863
lradius 61.2975
lwrist 31.2289
lhand 31.6964 42.2363
lfingers 7.12502
lthumb 55.2252 60.2107
rfemur -33.5304 14.3682 10.8514
rtibia 16.33
rfoot 31.7106 -3.9662
rtoes -12.829
lfemur -17.9131 -17.9857 -11.1478
ltibia 4.75165
lfoot -37.7376 45.2267
ltoes 49.0641
2021
root 1.42616 19.7559 2.83171 -504.975 114.512 -531.145
lowerback 183.399 183.901 181.21
upperback -11.9305 -4.63355 2.56703
thorax -14.9087 -2.02713 2.89751
lowerneck 2.47419 -2.34818 -4.39691
upperneck -21.3763 -2.42504 4.73619
head -6.77503 -1.07945 2.4124
rclavicle 3.44394e-014 2.38542e-015
rhumerus -68.8266 23.581 -88.189
rradius 64.8887
rwrist -8.04941
rhand 38.8307 11.0158
rfingers 7.12502
rthumb 61.419 -1.1833
lclavicle 3.44394e-014 2.38542e-015
lhumerus -76.9415 -16.9686 99.0586
lradius 61.6863
lwrist 31.6228
lhand 31.823 42.4437
lfingers 7.12502
lthumb 55.338 60.335
rfemur -33.1661 14.3208 10.6368
rtibia 16.0752
rfoot 32.0125 -4.92373
rtoes -11.1891
lfemur -17.5713 -18.2253 -11.2067
ltibia 4.26056
lfoot -38.9208 44.3879
ltoes 50.0845
2022
root 1.44717 19.7604 2.84445 -504.332 114.257 -530.335
lowerback 183.031 183.957 181.028
upperback -11.9594 -4.74228 2.48145
thorax -14.6944 -2.06943 2.8881
lowerneck 2.46464 -2.38268 -4.25619
upperneck -20.4488 -2.65369 3.94103
head -6.48363 -1.1552 2.12928
rclavicle 2.08227e-014 1.59028e-015
rhumerus -68.9981 23.6882 -88.3318
rradius 65.4131
rwrist -8.25353
rhand 39.0791 10.782
rfingers 7.12502
rthumb 61.6275 -1.16816
lclavicle 2.08227e-014 1.59028e-015
lhumerus -77.3185 -17.1838 99.1487
lradius 62.0774
lwrist 31.9696
lhand 31.8133 42.1086
lfingers 7.12502
lthumb 55.3294 60.0063
rfemur -32.8752 14.3651 10.2805
rtibia 15.9484
rfoot 31.9866 -6.36825
rtoes -8.14238
lfemur -17.2345 -18.5375 -11.2839
ltibia 3.67882
lfoot -36.6781 46.213
ltoes 49.4619
2023
root 1.46636 19.7637 2.8545 -503.784 113.952 -529.602
lowerback 182.731 184.027 180.923
upperback -11.9573 -4.86295 2.38898
thorax -14.4936 -2.12718 2.83461
lowerneck 2.40342 -2.41948 -4.13991
upperneck -19.4674 -2.85485 3.24314
head -6.16893 -1.22672 1.88163
rclavicle 2.93207e-014 3.97569e-015
rhumerus -69.0823 23.736 -88.4618
rradius 65.8457
rwrist -8.39574
rhand 39.1749 10.8719
rfingers 7.12502
rthumb 61.7078 -0.981179
lclavicle 2.93207e-014 3.97569e-015
lhumerus -77.6877 -17.3548 99.1585
lradius 62.4838
lwrist 32.2629
lhand 31.6923 41.5258
lfingers 7.12502
lthumb 55.2217 59.5029
rfemur -32.6177 14.3219 10.0126
rtibia 15.9692
rfoot 31.7515 -6.73683
rtoes -7.46228
lfemur -16.5919 -18.8634 -11.2715
ltibia 2.51296
lfoot -31.4189 49.8196
ltoes 47.6067
